<mxfile host="app.diagrams.net" modified="2024-06-06T23:05:56.691Z" agent="Mozilla/5.0 (Windows NT 10.0; Win64; x64) AppleWebKit/537.36 (KHTML, like Gecko) Chrome/125.0.0.0 Safari/537.36" etag="l3SyvueMztNoGfEBpKE8" version="24.5.1" type="device">
  <diagram name="Página-1" id="jhUa2c_ME8Zg-dEoiY2S">
    <mxGraphModel dx="880" dy="468" grid="1" gridSize="10" guides="1" tooltips="1" connect="1" arrows="1" fold="1" page="1" pageScale="1" pageWidth="827" pageHeight="1169" math="0" shadow="0">
      <root>
        <mxCell id="0" />
        <mxCell id="1" parent="0" />
        <mxCell id="zrO88S75txtm1Trhok4X-9" value="secretaria" style="shape=umlActor;verticalLabelPosition=bottom;verticalAlign=top;html=1;outlineConnect=0;" parent="1" vertex="1">
          <mxGeometry x="50" y="250" width="30" height="60" as="geometry" />
        </mxCell>
        <mxCell id="pPpCkHXu0AaEGF9PctEa-1" value="cadastrar curso" style="ellipse;whiteSpace=wrap;html=1;" vertex="1" parent="1">
          <mxGeometry x="110" y="40" width="120" height="80" as="geometry" />
        </mxCell>
        <mxCell id="pPpCkHXu0AaEGF9PctEa-2" value="cadastrar disciplina" style="ellipse;whiteSpace=wrap;html=1;" vertex="1" parent="1">
          <mxGeometry x="140" y="130" width="120" height="80" as="geometry" />
        </mxCell>
        <mxCell id="pPpCkHXu0AaEGF9PctEa-3" value="cadastrar aluno" style="ellipse;whiteSpace=wrap;html=1;" vertex="1" parent="1">
          <mxGeometry x="200" y="220" width="120" height="80" as="geometry" />
        </mxCell>
        <mxCell id="pPpCkHXu0AaEGF9PctEa-4" value="abrir turma" style="ellipse;whiteSpace=wrap;html=1;" vertex="1" parent="1">
          <mxGeometry x="240" y="310" width="120" height="80" as="geometry" />
        </mxCell>
        <mxCell id="pPpCkHXu0AaEGF9PctEa-5" value="maricular aluno" style="ellipse;whiteSpace=wrap;html=1;" vertex="1" parent="1">
          <mxGeometry x="220" y="400" width="120" height="80" as="geometry" />
        </mxCell>
        <mxCell id="pPpCkHXu0AaEGF9PctEa-6" value="" style="endArrow=none;html=1;rounded=0;entryX=0;entryY=1;entryDx=0;entryDy=0;" edge="1" parent="1" target="pPpCkHXu0AaEGF9PctEa-1">
          <mxGeometry width="50" height="50" relative="1" as="geometry">
            <mxPoint x="60" y="250" as="sourcePoint" />
            <mxPoint x="110" y="200" as="targetPoint" />
          </mxGeometry>
        </mxCell>
        <mxCell id="pPpCkHXu0AaEGF9PctEa-7" value="" style="endArrow=none;html=1;rounded=0;" edge="1" parent="1" target="pPpCkHXu0AaEGF9PctEa-2">
          <mxGeometry width="50" height="50" relative="1" as="geometry">
            <mxPoint x="80" y="290" as="sourcePoint" />
            <mxPoint x="130" y="240" as="targetPoint" />
          </mxGeometry>
        </mxCell>
        <mxCell id="pPpCkHXu0AaEGF9PctEa-8" value="" style="endArrow=none;html=1;rounded=0;" edge="1" parent="1" source="zrO88S75txtm1Trhok4X-9" target="pPpCkHXu0AaEGF9PctEa-3">
          <mxGeometry width="50" height="50" relative="1" as="geometry">
            <mxPoint x="100" y="340" as="sourcePoint" />
            <mxPoint x="150" y="290" as="targetPoint" />
          </mxGeometry>
        </mxCell>
        <mxCell id="pPpCkHXu0AaEGF9PctEa-9" value="" style="endArrow=none;html=1;rounded=0;" edge="1" parent="1" source="pPpCkHXu0AaEGF9PctEa-4" target="zrO88S75txtm1Trhok4X-9">
          <mxGeometry width="50" height="50" relative="1" as="geometry">
            <mxPoint x="110" y="420" as="sourcePoint" />
            <mxPoint x="160" y="370" as="targetPoint" />
          </mxGeometry>
        </mxCell>
        <mxCell id="pPpCkHXu0AaEGF9PctEa-11" value="emitir diario" style="ellipse;whiteSpace=wrap;html=1;" vertex="1" parent="1">
          <mxGeometry x="220" y="500" width="120" height="80" as="geometry" />
        </mxCell>
        <mxCell id="pPpCkHXu0AaEGF9PctEa-12" value="emitir historico escolar" style="ellipse;whiteSpace=wrap;html=1;" vertex="1" parent="1">
          <mxGeometry x="130" y="580" width="120" height="80" as="geometry" />
        </mxCell>
        <mxCell id="pPpCkHXu0AaEGF9PctEa-13" value="" style="endArrow=none;html=1;rounded=0;exitX=0;exitY=0.5;exitDx=0;exitDy=0;" edge="1" parent="1" source="pPpCkHXu0AaEGF9PctEa-5">
          <mxGeometry width="50" height="50" relative="1" as="geometry">
            <mxPoint x="10" y="360" as="sourcePoint" />
            <mxPoint x="60" y="310" as="targetPoint" />
          </mxGeometry>
        </mxCell>
        <mxCell id="pPpCkHXu0AaEGF9PctEa-14" value="" style="endArrow=none;html=1;rounded=0;exitX=0.05;exitY=0.238;exitDx=0;exitDy=0;exitPerimeter=0;entryX=0;entryY=1;entryDx=0;entryDy=0;entryPerimeter=0;" edge="1" parent="1" source="pPpCkHXu0AaEGF9PctEa-11" target="zrO88S75txtm1Trhok4X-9">
          <mxGeometry width="50" height="50" relative="1" as="geometry">
            <mxPoint x="10" y="375" as="sourcePoint" />
            <mxPoint x="120" y="637.9703703703703" as="targetPoint" />
          </mxGeometry>
        </mxCell>
        <mxCell id="pPpCkHXu0AaEGF9PctEa-16" value="" style="endArrow=none;html=1;rounded=0;" edge="1" parent="1" target="pPpCkHXu0AaEGF9PctEa-12">
          <mxGeometry width="50" height="50" relative="1" as="geometry">
            <mxPoint x="70" y="320" as="sourcePoint" />
            <mxPoint x="190" y="725" as="targetPoint" />
          </mxGeometry>
        </mxCell>
        <mxCell id="pPpCkHXu0AaEGF9PctEa-18" value="RH" style="shape=umlActor;verticalLabelPosition=bottom;verticalAlign=top;html=1;outlineConnect=0;" vertex="1" parent="1">
          <mxGeometry x="700" y="50" width="30" height="60" as="geometry" />
        </mxCell>
        <mxCell id="pPpCkHXu0AaEGF9PctEa-19" value="Professor" style="shape=umlActor;verticalLabelPosition=bottom;verticalAlign=top;html=1;outlineConnect=0;" vertex="1" parent="1">
          <mxGeometry x="700" y="170" width="30" height="60" as="geometry" />
        </mxCell>
        <mxCell id="pPpCkHXu0AaEGF9PctEa-20" value="aluno" style="shape=umlActor;verticalLabelPosition=bottom;verticalAlign=top;html=1;outlineConnect=0;" vertex="1" parent="1">
          <mxGeometry x="700" y="280" width="30" height="60" as="geometry" />
        </mxCell>
        <mxCell id="pPpCkHXu0AaEGF9PctEa-21" value="coordenador" style="shape=umlActor;verticalLabelPosition=bottom;verticalAlign=top;html=1;outlineConnect=0;" vertex="1" parent="1">
          <mxGeometry x="700" y="390" width="30" height="60" as="geometry" />
        </mxCell>
        <mxCell id="pPpCkHXu0AaEGF9PctEa-22" value="cadatrar professor" style="ellipse;whiteSpace=wrap;html=1;" vertex="1" parent="1">
          <mxGeometry x="530" y="50" width="120" height="80" as="geometry" />
        </mxCell>
        <mxCell id="pPpCkHXu0AaEGF9PctEa-23" value="lançar avaliação" style="ellipse;whiteSpace=wrap;html=1;" vertex="1" parent="1">
          <mxGeometry x="530" y="170" width="120" height="80" as="geometry" />
        </mxCell>
        <mxCell id="pPpCkHXu0AaEGF9PctEa-24" value="consultar avaliação" style="ellipse;whiteSpace=wrap;html=1;" vertex="1" parent="1">
          <mxGeometry x="510" y="280" width="120" height="80" as="geometry" />
        </mxCell>
        <mxCell id="pPpCkHXu0AaEGF9PctEa-25" value="alocar prof" style="ellipse;whiteSpace=wrap;html=1;" vertex="1" parent="1">
          <mxGeometry x="520" y="390" width="120" height="80" as="geometry" />
        </mxCell>
        <mxCell id="pPpCkHXu0AaEGF9PctEa-26" value="" style="endArrow=none;html=1;rounded=0;exitX=0.983;exitY=0.738;exitDx=0;exitDy=0;exitPerimeter=0;" edge="1" parent="1" source="pPpCkHXu0AaEGF9PctEa-22">
          <mxGeometry width="50" height="50" relative="1" as="geometry">
            <mxPoint x="670" y="140" as="sourcePoint" />
            <mxPoint x="720" y="90" as="targetPoint" />
          </mxGeometry>
        </mxCell>
        <mxCell id="pPpCkHXu0AaEGF9PctEa-27" value="" style="endArrow=none;html=1;rounded=0;exitX=0.95;exitY=0.763;exitDx=0;exitDy=0;exitPerimeter=0;" edge="1" parent="1" source="pPpCkHXu0AaEGF9PctEa-23">
          <mxGeometry width="50" height="50" relative="1" as="geometry">
            <mxPoint x="670" y="250" as="sourcePoint" />
            <mxPoint x="720" y="200" as="targetPoint" />
          </mxGeometry>
        </mxCell>
        <mxCell id="pPpCkHXu0AaEGF9PctEa-28" value="" style="endArrow=none;html=1;rounded=0;" edge="1" parent="1" source="pPpCkHXu0AaEGF9PctEa-24">
          <mxGeometry width="50" height="50" relative="1" as="geometry">
            <mxPoint x="670" y="360" as="sourcePoint" />
            <mxPoint x="720" y="310" as="targetPoint" />
          </mxGeometry>
        </mxCell>
        <mxCell id="pPpCkHXu0AaEGF9PctEa-29" value="" style="endArrow=none;html=1;rounded=0;" edge="1" parent="1" source="pPpCkHXu0AaEGF9PctEa-25">
          <mxGeometry width="50" height="50" relative="1" as="geometry">
            <mxPoint x="670" y="465" as="sourcePoint" />
            <mxPoint x="720" y="415" as="targetPoint" />
          </mxGeometry>
        </mxCell>
      </root>
    </mxGraphModel>
  </diagram>
</mxfile>
